<?xml version="1.0" encoding="utf-8"?>
<!-- Generator: Adobe Illustrator 16.0.0, SVG Export Plug-In . SVG Version: 6.00 Build 0)  -->
<!DOCTYPE svg PUBLIC "-//W3C//DTD SVG 1.1//EN" "http://www.w3.org/Graphics/SVG/1.1/DTD/svg11.dtd">
<svg version="1.1" id="Layer_1" xmlns="http://www.w3.org/2000/svg" xmlns:xlink="http://www.w3.org/1999/xlink" x="0px" y="0px"
	 width="301.189px" height="262px" viewBox="0 8.5 301.189 262" enable-background="new 0 8.5 301.189 262" xml:space="preserve">
<g id="Layer_2">
	<line fill="none" stroke="#A5DFF9" stroke-width="12" stroke-miterlimit="10" x1="79.014" y1="15.391" x2="41.939" y2="201.721"/>
	<line fill="none" stroke="#A5DFF9" stroke-width="12" stroke-miterlimit="10" x1="82.153" y1="18.465" x2="110.317" y2="261.407"/>
	<line fill="none" stroke="#A5DFF9" stroke-width="12" stroke-miterlimit="10" x1="239.789" y1="45.28" x2="60.477" y2="233.177"/>
	<line fill="none" stroke="#A5DFF9" stroke-width="12" stroke-miterlimit="10" x1="39.445" y1="83.926" x2="267.01" y2="186.934"/>
	
		<line fill="none" stroke="#A5DFF9" stroke-width="12" stroke-miterlimit="10" x1="41.939" y1="201.721" x2="164.683" y2="263.975"/>
	
		<line fill="none" stroke="#A5DFF9" stroke-width="12" stroke-miterlimit="10" x1="257.683" y1="76.273" x2="171.429" y2="261.407"/>
</g>
<g id="Layer_1_1_">
	<g>
		<path fill="#5B9CD4" d="M86.375,188.682c-5.8-5.865-9.101-13.729-9.9-23.6l17.8-5.4c1.066,7.469,2.9,13,5.5,16.602
			c2.601,3.601,6.301,5.398,11.101,5.398c3.73,0,6.631-1.1,8.7-3.299c2.064-2.201,3.1-5.166,3.1-8.9c0-3.332-0.734-6.332-2.2-9
			c-1.469-2.666-3.869-5.399-7.2-8.199l-19.8-17c-4.534-3.865-8.034-7.965-10.5-12.3c-2.469-4.331-3.7-9.631-3.7-15.899
			c0-8.932,2.666-15.9,8-20.9c5.332-5,12.601-7.5,21.801-7.5c8.8,0,15.699,2.834,20.699,8.5c5,5.669,7.9,12.969,8.7,21.9
			l-14.399,5.399c-0.936-6.531-2.47-11.5-4.601-14.899c-2.134-3.4-5.334-5.101-9.6-5.101c-3.47,0-6.234,1.135-8.3,3.4
			c-2.069,2.269-3.101,5.068-3.101,8.399c0,4.27,1.931,8.135,5.8,11.601l20.4,18.8c5.2,4.8,9.23,9.534,12.1,14.2
			c2.866,4.668,4.301,10.334,4.301,17c0,9.6-2.869,16.934-8.601,22c-5.733,5.068-13.534,7.6-23.399,7.6
			C99.74,197.48,92.175,194.551,86.375,188.682z"/>
		<path fill="#5B9CD4" d="M174.073,135.083l-25.4-54.801h20.4l17,36.601l15-36.601h21l-26.399,57.4l26.8,58.2h-20.399l-18.2-39.2
			l-15.601,39.2h-20.199L174.073,135.083z"/>
		<path fill="#5B9CD4" d="M224.071,206.48h68.801v16.201h-68.801V206.48z"/>
	</g>
	<polygon fill="none" stroke="#5B9CD4" stroke-width="12" stroke-miterlimit="10" points="79.014,263.975 7.254,139.682 
		79.014,15.391 222.532,15.391 294.292,139.682 222.532,263.975 	"/>
</g>
</svg>
