<?xml version="1.0" encoding="utf-8"?>
<!-- Generator: Adobe Illustrator 16.0.0, SVG Export Plug-In . SVG Version: 6.00 Build 0)  -->
<!DOCTYPE svg PUBLIC "-//W3C//DTD SVG 1.1//EN" "http://www.w3.org/Graphics/SVG/1.1/DTD/svg11.dtd">
<svg version="1.1" id="Layer_1" xmlns="http://www.w3.org/2000/svg" xmlns:xlink="http://www.w3.org/1999/xlink" x="0px" y="0px"
	 width="612px" height="792px" viewBox="0 0 612 792" enable-background="new 0 0 612 792" xml:space="preserve">
<g>
	<path fill="#5B9BD5" d="M576.479,96.893c0-1.402-0.28-2.754-0.816-3.978c-1.988-12.546-12.443-22.338-25.551-22.338H152.923
		c-14.509,0-26.341,11.806-26.341,26.316v307.063c0,5.636,4.59,10.2,10.2,10.2c5.61,0,10.2-4.59,10.2-10.2V96.893
		c0-3.264,2.652-5.891,5.916-5.891h397.213c3.264,0,5.916,2.652,5.916,5.891v358.981H416.032c-5.635,0-10.2,4.59-10.2,10.2v138.898
		H224.783c-5.636,0-10.2,4.59-10.2,10.2c0,5.609,4.59,10.199,10.2,10.199h188.241c7.063,0,13.693-2.754,18.666-7.803
		l141.729-144.305c0.025-0.025,0.025-0.025,0.051-0.051l0.025-0.025c0,0,0.025-0.051,0.025-0.076
		c1.198-1.225,1.938-2.831,2.397-4.539c0.127-0.434,0.203-0.842,0.255-1.275c0.051-0.434,0.255-0.815,0.255-1.249V96.893H576.479z
		 M426.258,594.109V476.325h115.693L426.258,594.109z"/>
	<path fill="#5B9BD5" d="M170.519,531.277l-23.511,25.78v-92.284c0-5.636-4.59-10.2-10.2-10.2c-5.61,0-10.2,4.59-10.2,10.2v92.311
		l-23.383-25.603c-3.749-4.207-10.251-4.462-14.382-0.638c-4.156,3.774-4.462,10.226-0.637,14.382l41.131,45.033
		c0.025,0.025,0.077,0.052,0.102,0.077c0.153,0.152,0.28,0.306,0.434,0.434c0.051,0.051,0.077,0.127,0.127,0.152
		c0.077,0.077,0.204,0.051,0.28,0.103c0.74,0.637,1.53,1.224,2.423,1.632c0.051,0.025,0.076,0.051,0.127,0.076
		c1.224,0.535,2.575,0.842,4.003,0.842l0,0l0,0c0.434,0,0.841-0.204,1.275-0.255c0.918-0.128,1.862-0.204,2.678-0.562
		c0.382-0.152,0.688-0.51,1.071-0.714c0.536-0.306,1.071-0.638,1.53-1.02c0.102-0.077,0.229-0.052,0.331-0.128
		c0.051-0.051,0.077-0.127,0.128-0.179c0.102-0.102,0.204-0.204,0.306-0.306c0.077-0.076,0.179-0.102,0.229-0.179l41.233-45.237
		c3.774-4.156,3.494-10.607-0.663-14.407C180.744,526.866,174.343,527.096,170.519,531.277z"/>
	<path fill="#5B9BD5" d="M136.884,422.749c-55.87,0-101.362,45.467-101.362,101.363c0,55.845,45.466,101.337,101.362,101.337
		c55.871,0,101.363-45.467,101.363-101.337C238.221,468.216,192.754,422.749,136.884,422.749z M136.884,604.998
		c-44.625,0-80.937-36.286-80.937-80.911s36.312-80.938,80.937-80.938s80.937,36.313,80.937,80.938S181.509,604.998,136.884,604.998
		z"/>
	<g>
		<path fill="#5B9BD5" d="M284.067,349.938c0,3.694-0.1,6.065-2.3,9.112c-2.2,3.051-4.435,4.575-6.7,4.575
			c-1.334,0-4.869,0.481-6.6-0.565c-1.734-1.042-3.535-2.205-5.4-3.491l-65-45.986c-1.6-1.121-2.8-2.686-3.6-4.695
			c-0.8-2.005-1.2-4.13-1.2-6.38c0-2.408,0.4-4.574,1.2-6.5c0.8-1.926,2-3.45,3.6-4.575l65-45.022
			c3.866-2.728,7.932-5.093,10.2-5.093c2.666,0,7.166,1.565,9.5,4.695c2.331,3.13,3.5,6.38,3.5,9.751c0,3.694-4.469,7.583-7.4,9.667
			l-53.2,37.078l53,38.041C281.599,342.474,284.067,345.604,284.067,349.938z"/>
		<path fill="#5B9BD5" d="M298.828,406.396c-2.522-2.329-3.78-5.177-3.78-8.548c0-1.926,0.444-3.852,1.334-5.778l90.283-200.075
			c1.035-2.246,2.408-4.01,4.113-5.297c1.703-1.283,3.594-1.926,5.672-1.926c2.814,0,5.447,1.167,7.894,3.491
			c2.446,2.329,3.669,5.177,3.669,8.547c0,1.926-0.444,3.852-1.334,5.778l-90.062,200.075c-1.038,2.245-2.41,4.01-4.113,5.297
			c-1.706,1.282-3.596,1.926-5.671,1.926C304.016,409.887,301.347,408.721,298.828,406.396z"/>
		<path fill="#5B9BD5" d="M505.665,298.053c0.8,2.009,1.2,4.134,1.2,6.38c0,2.408-0.4,4.575-1.2,6.5c-0.8,1.926-2,3.454-3.6,4.575
			l-65,45.023c-3.869,2.731-9.935,4.093-12.2,4.093c-2.669,0-5.169-1.565-7.5-4.695c-2.334-3.13-2.5-6.38-2.5-9.751
			c0-3.69,3.466-6.58,6.4-8.667l53.199-37.078l-53-38.041c-2.934-1.926-5.399-5.056-5.399-9.39c0-3.69,0.1-5.061,2.3-8.112
			c2.2-3.047,4.432-4.575,6.7-4.575c1.331,0,3.865-0.477,5.6,0.565c1.731,1.046,4.531,1.208,6.4,2.491l65,45.986
			C503.665,294.483,504.865,296.048,505.665,298.053z"/>
	</g>
</g>
</svg>
